<?xml version="1.0" encoding="iso-8859-1"?>
<!-- Generator: Adobe Illustrator 19.0.0, SVG Export Plug-In . SVG Version: 6.00 Build 0)  -->
<svg version="1.1" id="Layer_1" xmlns="http://www.w3.org/2000/svg" xmlns:xlink="http://www.w3.org/1999/xlink" x="0px" y="0px"
	 viewBox="0 0 512 512" style="enable-background:new 0 0 512 512;" xml:space="preserve">
<circle style="fill:#88EB92;" cx="256" cy="256" r="256"/>
<path style="fill:#73D17C;" d="M308.1,506.7L48,246.6h220.8c1.9-44.3,38.3-79.6,83.1-79.6s81.2,35.3,83.1,79.6h3.7l67.6,64.2
	C484.6,409.1,406.8,486.3,308.1,506.7z"/>
<path style="fill:#EAEAED;" d="M271.1,226.3H73.5L48,246.6l25.6,23.8h7.9l8.1,12c2.2,3.3,5.7,5.1,9.6,5.1c4,0,7.4-1.8,9.6-5.1
	l8.1-12h5.8l8.1,12c2.2,3.3,5.7,5.1,9.6,5.1c4,0,7.4-1.8,9.6-5.1l8.1-12h5.8l8.1,12c2.2,3.3,5.6,5.1,9.6,5.1s7.4-1.8,9.6-5.1l8.1-12
	h71.1c-1.2-6.6-1.8-13.3-1.8-20.2C268.7,242,269.5,234,271.1,226.3z"/>
<polygon style="fill:#B3B3BD;" points="49.3,245.5 48,246.6 52.9,251.2 218.4,251.2 218.4,245.5 "/>
<path style="fill:#68606E;" d="M351.8,167c-45.9,0-83.1,37.2-83.1,83.1s37.2,83.1,83.1,83.1S435,296,435,250.1S397.7,167,351.8,167z
	 M403,276.5c-10.7,0-19.3-8.6-19.3-19.3c0-10.7,8.6-19.3,19.3-19.3c10.7,0,19.3,8.6,19.3,19.3C422.3,267.9,413.7,276.5,403,276.5z"
	/>
<path style="fill:#817C85;" d="M416.9,198.4c-15.2-19.1-38.7-31.4-65-31.4c-44.1,0-80.2,34.4-83,77.8c2.7,41.7,37.3,74.6,79.7,74.6
	c44.1,0,79.8-35.7,79.8-79.8C428.3,224.5,424.1,210.4,416.9,198.4z M399.3,269.4c-10.7,0-19.3-8.6-19.3-19.3s8.6-19.3,19.3-19.3
	c10.7,0,19.3,8.6,19.3,19.3C418.6,260.8,410,269.4,399.3,269.4z"/>
<g>
</g>
<g>
</g>
<g>
</g>
<g>
</g>
<g>
</g>
<g>
</g>
<g>
</g>
<g>
</g>
<g>
</g>
<g>
</g>
<g>
</g>
<g>
</g>
<g>
</g>
<g>
</g>
<g>
</g>
</svg>
